<svg xmlns="http://www.w3.org/2000/svg" xmlns:xlink="http://www.w3.org/1999/xlink" width="500" zoomAndPan="magnify" viewBox="0 0 375 374.999991" height="500" preserveAspectRatio="xMidYMid meet" version="1.0"><defs><clipPath id="52b7bb75b8"><path d="M 158.664062 165 L 216.917969 165 L 216.917969 207.6875 L 158.664062 207.6875 Z M 158.664062 165 " clip-rule="nonzero"/></clipPath><clipPath id="83d5f76d93"><path d="M 160 174 L 216 174 L 216 190 L 160 190 Z M 160 174 " clip-rule="nonzero"/></clipPath><clipPath id="849abb9123"><path d="M 161.164062 169.777344 L 216.644531 179.058594 L 214.664062 190.894531 L 159.1875 181.613281 Z M 161.164062 169.777344 " clip-rule="nonzero"/></clipPath><clipPath id="0a4dcfacba"><path d="M 217.003906 179.117188 L 161.523438 169.839844 L 159.542969 181.671875 L 215.023438 190.953125 Z M 217.003906 179.117188 " clip-rule="nonzero"/></clipPath><clipPath id="277a5ec656"><path d="M 158.023438 206.261719 L 216.203125 206.261719 L 216.203125 210.761719 L 158.023438 210.761719 Z M 158.023438 206.261719 " clip-rule="nonzero"/></clipPath></defs><path fill="#004aad" d="M 192.164062 193.234375 C 190.964844 193.234375 189.761719 193.238281 188.574219 193.0625 C 188.925781 193.410156 189.472656 193.429688 189.96875 193.429688 C 194.832031 193.429688 199.699219 193.425781 204.5625 193.425781 C 205.058594 193.425781 205.570312 193.429688 206.03125 193.617188 C 206.089844 193.429688 205.835938 193.304688 205.640625 193.277344 C 205.195312 193.214844 204.738281 193.214844 204.289062 193.214844 C 200.246094 193.222656 196.203125 193.226562 192.164062 193.234375 Z M 192.164062 193.234375 " fill-opacity="1" fill-rule="nonzero"/><path fill="#004aad" d="M 187.136719 193.425781 C 185.945312 193.003906 184.742188 192.613281 183.53125 192.25 C 183.25 192.164062 182.964844 192.078125 182.667969 192.070312 C 182.589844 192.070312 182.476562 192.136719 182.535156 192.195312 C 184.246094 192.625 185.929688 193.167969 187.570312 193.820312 C 187.714844 193.878906 187.882812 193.9375 188.019531 193.863281 C 187.765625 193.652344 187.449219 193.535156 187.136719 193.425781 Z M 187.136719 193.425781 " fill-opacity="1" fill-rule="nonzero"/><path fill="#004aad" d="M 197.59375 195.738281 C 197.695312 195.84375 197.859375 195.851562 198.007812 195.851562 C 201.308594 195.851562 204.613281 195.851562 207.914062 195.847656 C 208.007812 195.761719 207.828125 195.644531 207.699219 195.644531 C 204.566406 195.644531 201.429688 195.644531 198.292969 195.644531 C 198.054688 195.644531 197.8125 195.644531 197.59375 195.738281 Z M 197.59375 195.738281 " fill-opacity="1" fill-rule="nonzero"/><path fill="#004aad" d="M 202.011719 196.28125 C 201.945312 196.546875 201.921875 196.820312 201.941406 197.09375 C 201.953125 197.238281 201.984375 197.394531 202.101562 197.476562 C 202.425781 197.699219 202.875 197.855469 203.199219 197.632812 C 203.421875 197.480469 203.507812 197.199219 203.578125 196.9375 C 203.605469 196.84375 203.628906 196.75 203.65625 196.652344 C 203.6875 196.53125 203.71875 196.398438 203.660156 196.285156 C 203.570312 196.113281 203.328125 196.105469 203.132812 196.121094 C 202.785156 196.152344 202.441406 196.183594 202.097656 196.214844 C 202.070312 196.214844 202.042969 196.21875 202.027344 196.238281 C 202.019531 196.25 202.015625 196.265625 202.011719 196.28125 Z M 202.011719 196.28125 " fill-opacity="1" fill-rule="nonzero"/><path fill="#004aad" d="M 208.800781 194.660156 C 208.835938 194.628906 208.863281 194.582031 208.871094 194.535156 C 208.679688 194.4375 208.488281 194.335938 208.296875 194.238281 C 209.34375 194.15625 210.394531 194.199219 211.429688 194.363281 C 211.476562 194.3125 211.453125 194.226562 211.398438 194.183594 C 211.347656 194.140625 211.277344 194.128906 211.210938 194.117188 C 210.578125 194.023438 209.941406 193.992188 209.304688 194.015625 C 208.792969 194.03125 208.273438 194.089844 207.765625 194 C 207.621094 193.972656 207.453125 193.945312 207.347656 194.050781 C 207.832031 194.253906 208.316406 194.457031 208.800781 194.660156 Z M 208.800781 194.660156 " fill-opacity="1" fill-rule="nonzero"/><path fill="#004aad" d="M 214.222656 196.710938 C 214.386719 196.636719 214.414062 196.402344 214.324219 196.25 C 214.203125 196.042969 213.945312 195.953125 213.707031 195.953125 C 213.320312 195.957031 212.941406 196.171875 212.734375 196.5 C 212.957031 196.636719 213.230469 196.664062 213.492188 196.6875 C 213.65625 196.699219 213.820312 196.714844 213.984375 196.730469 C 214.0625 196.738281 214.148438 196.742188 214.222656 196.710938 Z M 214.222656 196.710938 " fill-opacity="1" fill-rule="nonzero"/><path fill="#004aad" d="M 175.324219 195.46875 C 175.453125 195.527344 175.605469 195.449219 175.742188 195.488281 C 175.855469 195.515625 175.976562 195.449219 176.046875 195.355469 C 176.113281 195.257812 176.140625 195.140625 176.167969 195.027344 C 176.199219 194.886719 176.214844 194.707031 176.089844 194.640625 C 176.042969 194.617188 175.988281 194.617188 175.9375 194.613281 C 175.835938 194.613281 175.734375 194.613281 175.632812 194.613281 C 175.511719 194.613281 175.378906 194.617188 175.296875 194.699219 C 175.230469 194.765625 175.207031 194.863281 175.191406 194.953125 C 175.15625 195.140625 175.148438 195.386719 175.324219 195.46875 M 175.90625 194.832031 C 175.925781 194.835938 175.953125 194.84375 175.96875 194.863281 C 175.980469 194.875 175.984375 194.890625 175.984375 194.910156 C 176.003906 195.046875 175.929688 195.1875 175.808594 195.253906 C 175.6875 195.320312 175.527344 195.304688 175.421875 195.214844 C 175.316406 195.125 175.371094 194.933594 175.492188 194.859375 C 175.613281 194.789062 175.765625 194.804688 175.90625 194.832031 Z M 175.90625 194.832031 " fill-opacity="1" fill-rule="nonzero"/><path fill="#004aad" d="M 167.902344 193.929688 C 167.75 193.949219 167.585938 194.019531 167.527344 194.160156 C 167.480469 194.28125 167.515625 194.421875 167.464844 194.539062 C 167.414062 194.652344 167.578125 194.742188 167.703125 194.765625 C 167.863281 194.792969 168.03125 194.816406 168.191406 194.785156 C 168.351562 194.753906 168.507812 194.648438 168.554688 194.492188 C 168.605469 194.328125 168.527344 194.144531 168.390625 194.042969 C 168.253906 193.9375 168.074219 193.910156 167.902344 193.929688 M 167.75 194.535156 C 167.640625 194.457031 167.679688 194.277344 167.789062 194.203125 C 167.894531 194.128906 168.039062 194.140625 168.167969 194.164062 C 168.199219 194.171875 168.234375 194.179688 168.261719 194.199219 C 168.371094 194.265625 168.34375 194.449219 168.242188 194.527344 C 168.136719 194.605469 167.992188 194.597656 167.863281 194.574219 C 167.824219 194.566406 167.78125 194.558594 167.75 194.535156 Z M 167.75 194.535156 " fill-opacity="1" fill-rule="nonzero"/><path fill="#004aad" d="M 191.46875 195.910156 C 191.089844 195.832031 190.675781 195.953125 190.394531 196.21875 C 190.324219 196.285156 190.261719 196.367188 190.253906 196.464844 C 190.246094 196.5625 190.324219 196.667969 190.421875 196.660156 C 190.878906 196.609375 191.347656 196.648438 191.796875 196.765625 C 191.992188 196.695312 192.058594 196.429688 191.964844 196.246094 C 191.875 196.058594 191.671875 195.953125 191.46875 195.910156 Z M 191.46875 195.910156 " fill-opacity="1" fill-rule="nonzero"/><path fill="#004aad" d="M 210.820312 195.914062 C 210.742188 195.941406 210.667969 196.003906 210.585938 195.988281 C 210.324219 195.941406 210.125 196.230469 210.066406 196.492188 C 210.054688 196.535156 210.046875 196.585938 210.058594 196.628906 C 210.09375 196.769531 210.277344 196.796875 210.421875 196.796875 C 210.644531 196.796875 210.871094 196.792969 211.09375 196.792969 C 211.152344 196.792969 211.21875 196.789062 211.261719 196.746094 C 211.289062 196.722656 211.300781 196.683594 211.308594 196.648438 C 211.355469 196.472656 211.363281 196.277344 211.277344 196.117188 C 211.191406 195.957031 210.992188 195.851562 210.820312 195.914062 Z M 210.820312 195.914062 " fill-opacity="1" fill-rule="nonzero"/><path fill="#004aad" d="M 194.671875 196.730469 C 194.804688 196.738281 194.957031 196.738281 195.042969 196.636719 C 195.171875 196.484375 195.039062 196.257812 194.910156 196.105469 C 194.796875 195.96875 194.664062 195.828125 194.488281 195.8125 C 194.402344 195.804688 194.316406 195.828125 194.234375 195.859375 C 193.976562 195.953125 193.730469 196.082031 193.507812 196.246094 C 193.441406 196.296875 193.375 196.351562 193.34375 196.429688 C 193.3125 196.503906 193.335938 196.609375 193.410156 196.644531 C 193.4375 196.65625 193.46875 196.660156 193.5 196.660156 C 193.890625 196.683594 194.28125 196.707031 194.671875 196.730469 Z M 194.671875 196.730469 " fill-opacity="1" fill-rule="nonzero"/><path fill="#004aad" d="M 188.839844 196.761719 C 188.878906 196.773438 188.917969 196.785156 188.960938 196.78125 C 189.121094 196.769531 189.164062 196.546875 189.128906 196.390625 C 189.054688 196.097656 188.828125 195.820312 188.527344 195.785156 C 188.289062 195.761719 188.0625 195.890625 187.855469 196.015625 C 187.71875 196.101562 187.574219 196.195312 187.519531 196.34375 C 187.46875 196.496094 187.578125 196.703125 187.734375 196.679688 C 188.101562 196.625 188.484375 196.652344 188.839844 196.761719 Z M 188.839844 196.761719 " fill-opacity="1" fill-rule="nonzero"/><g clip-path="url(#52b7bb75b8)"><path fill="#004aad" d="M 212.816406 193.804688 C 213.558594 184.941406 209.488281 175.777344 202.308594 170.527344 C 195.125 165.28125 185.054688 164.203125 177 167.980469 C 168.945312 171.757812 163.304688 180.292969 163.160156 189.1875 C 162.164062 188.589844 161.015625 188.246094 159.855469 188.199219 C 160.375 190.011719 160.894531 191.828125 161.414062 193.640625 C 160.523438 193.644531 160.011719 194.664062 159.898438 195.542969 C 159.785156 196.425781 159.828125 197.410156 159.242188 198.082031 C 159 198.359375 158.667969 198.816406 158.984375 199.011719 C 159.777344 199.507812 160.425781 200.238281 160.820312 201.085938 C 161.832031 203.25 161.398438 206.324219 163.445312 207.550781 C 162.371094 207.277344 161.191406 207.433594 160.222656 207.972656 C 178.382812 208.007812 196.542969 208 214.703125 207.949219 C 213.0625 207.257812 211.203125 207.425781 209.429688 207.605469 C 211.03125 205.996094 213.441406 205.230469 215.679688 205.617188 C 214.835938 204.402344 213.949219 203.011719 214.210938 201.554688 C 215.933594 201.113281 216.917969 199.050781 216.496094 197.324219 C 216.074219 195.597656 214.523438 194.300781 212.816406 193.804688 M 175.042969 186.171875 C 175.046875 185.90625 175.046875 185.617188 174.890625 185.402344 C 174.648438 185.066406 174.152344 185.054688 173.746094 185.125 C 171.96875 185.429688 170.480469 186.601562 169.113281 187.777344 C 167.8125 188.890625 166.539062 190.046875 165.300781 191.230469 C 164.90625 191.613281 165.144531 192.339844 165.613281 192.617188 C 166.085938 192.898438 166.671875 192.867188 167.21875 192.824219 C 166.753906 193.894531 166.457031 195.035156 166.34375 196.191406 C 165.601562 196.460938 164.84375 195.757812 164.054688 195.765625 C 163.425781 195.773438 162.902344 196.222656 162.367188 196.554688 C 161.835938 196.890625 161.089844 197.109375 160.613281 196.699219 C 160.339844 195.71875 160.796875 194.65625 161.484375 193.902344 C 162.171875 193.148438 163.066406 192.628906 163.898438 192.035156 C 167.128906 189.734375 169.621094 186.210938 173.398438 184.996094 C 175.054688 184.460938 176.824219 184.429688 178.566406 184.414062 C 182.734375 184.378906 186.90625 184.433594 191.074219 184.570312 C 192.015625 184.601562 192.980469 184.644531 193.839844 185.023438 C 194.671875 185.390625 195.335938 186.042969 195.980469 186.679688 C 197.671875 188.351562 199.363281 190.023438 201.054688 191.695312 C 199.269531 190.035156 197.484375 188.375 195.703125 186.71875 C 195.066406 186.128906 194.414062 185.523438 193.609375 185.207031 C 192.890625 184.925781 192.105469 184.890625 191.335938 184.863281 C 186.574219 184.691406 181.808594 184.6875 177.046875 184.851562 C 176.613281 184.863281 176.125 184.910156 175.855469 185.25 C 175.652344 185.503906 175.636719 185.855469 175.628906 186.179688 C 175.59375 187.824219 175.5625 189.464844 175.527344 191.109375 C 175.523438 191.308594 175.53125 191.539062 175.683594 191.667969 C 175.804688 191.773438 175.980469 191.777344 176.144531 191.777344 C 183.261719 191.78125 190.382812 191.78125 197.5 191.785156 C 202.867188 191.785156 208.449219 191.835938 213.277344 194.179688 C 214.875 194.957031 216.550781 196.371094 216.308594 198.132812 C 216.1875 197.460938 216.0625 196.769531 215.722656 196.175781 C 215.378906 195.585938 214.769531 195.097656 214.085938 195.097656 C 212.695312 195.101562 211.308594 195.101562 209.917969 195.101562 C 209.292969 195.101562 208.816406 195.667969 208.542969 196.234375 C 208.273438 196.796875 208.09375 197.433594 207.640625 197.867188 C 207.011719 198.460938 206.046875 198.488281 205.183594 198.480469 C 202.992188 198.460938 200.804688 198.441406 198.617188 198.421875 C 198.015625 198.414062 197.5625 197.867188 197.308594 197.324219 C 197.054688 196.777344 196.894531 196.164062 196.472656 195.734375 C 195.84375 195.09375 194.84375 195.0625 193.945312 195.070312 C 192.132812 195.089844 190.324219 195.105469 188.511719 195.125 C 188.15625 195.125 187.789062 195.132812 187.472656 195.292969 C 186.773438 195.648438 186.628906 196.554688 186.277344 197.253906 C 185.925781 197.953125 184.820312 198.457031 184.441406 197.769531 C 184.882812 196.894531 185.460938 196.089844 186.148438 195.390625 C 185.601562 195.347656 185.347656 196.023438 185.101562 196.511719 C 184.644531 197.425781 183.625 198.023438 182.605469 197.980469 C 181.585938 197.9375 180.621094 197.257812 180.242188 196.308594 C 179.804688 195.214844 178.234375 195.226562 177.132812 195.640625 C 176.03125 196.058594 174.816406 196.6875 173.746094 196.191406 C 174.527344 192.910156 174.960938 189.546875 175.042969 186.171875 M 190.597656 191.050781 C 190.261719 191.050781 189.84375 190.996094 189.726562 190.679688 C 189.503906 190.089844 188.9375 189.6875 188.339844 189.5 C 187.742188 189.3125 187.101562 189.3125 186.472656 189.3125 C 185.738281 189.3125 184.988281 189.3125 184.28125 189.523438 C 183.578125 189.734375 182.90625 190.183594 182.609375 190.859375 C 182.527344 191.046875 182.277344 191.074219 182.074219 191.078125 C 180.25 191.089844 178.425781 191.101562 176.605469 191.113281 C 176.511719 191.113281 176.414062 191.113281 176.347656 191.050781 C 176.277344 190.988281 176.265625 190.882812 176.261719 190.789062 C 176.183594 189.378906 176.171875 187.96875 176.226562 186.558594 C 176.238281 186.324219 176.265625 186.058594 176.460938 185.925781 C 176.585938 185.835938 176.75 185.832031 176.90625 185.832031 C 182.050781 185.832031 187.191406 185.832031 192.335938 185.828125 C 192.765625 185.828125 193.210938 185.832031 193.613281 185.984375 C 194.042969 186.144531 194.390625 186.464844 194.726562 186.78125 C 196.257812 188.214844 197.769531 189.667969 199.261719 191.140625 C 196.375 191.113281 193.484375 191.082031 190.597656 191.050781 M 205.355469 204.347656 C 207.839844 204.421875 210.339844 204.582031 212.800781 204.246094 C 213.347656 204.171875 213.917969 204.078125 214.441406 204.246094 C 214.964844 204.417969 215.417969 204.964844 215.269531 205.496094 C 204.148438 205.449219 193.027344 205.457031 181.90625 205.523438 C 181.957031 204.996094 182.402344 204.578125 182.898438 204.394531 C 183.394531 204.214844 183.9375 204.226562 184.464844 204.238281 C 188.421875 204.339844 192.378906 204.4375 196.335938 204.539062 C 196.246094 204.472656 196.15625 204.402344 196.070312 204.335938 C 199.164062 204.292969 202.261719 204.253906 205.355469 204.347656 M 187.257812 205.667969 C 192.128906 205.667969 197 205.671875 201.871094 205.671875 C 202.054688 205.671875 202.277344 205.703125 202.335938 205.875 C 202.613281 206.679688 203.324219 207.320312 204.152344 207.515625 C 197.585938 207.515625 191.023438 207.515625 184.460938 207.515625 C 185.308594 207.242188 186.050781 206.664062 186.53125 205.917969 C 186.675781 205.691406 186.988281 205.667969 187.257812 205.667969 M 161.878906 204.660156 C 161.558594 204.628906 161.527344 204.179688 161.566406 203.859375 C 161.679688 202.921875 161.585938 201.976562 161.535156 201.035156 C 161.480469 200.097656 161.464844 199.136719 161.734375 198.230469 C 162.003906 197.328125 162.59375 196.480469 163.457031 196.105469 C 163.769531 195.96875 164.128906 195.898438 164.453125 196.011719 C 164.863281 196.148438 165.128906 196.546875 165.304688 196.941406 C 165.59375 197.585938 165.726562 198.285156 165.894531 198.972656 C 166.179688 200.152344 166.578125 201.308594 167.078125 202.417969 C 167.230469 202.75 167.414062 203.105469 167.742188 203.265625 C 167.964844 203.375 168.222656 203.378906 168.472656 203.382812 C 170.386719 203.394531 172.304688 203.410156 174.21875 203.421875 C 174.296875 203.421875 174.3125 203.535156 174.300781 203.609375 C 174.25 204.003906 174.195312 204.394531 174.144531 204.789062 C 174.136719 204.84375 174.125 204.902344 174.089844 204.941406 C 174.039062 204.996094 173.957031 205 173.886719 205 C 171.300781 205.011719 168.714844 205.027344 166.128906 205.039062 C 166.015625 205.039062 165.867188 205.007812 165.863281 204.894531 C 165.816406 203.578125 165.679688 202.269531 165.449219 200.972656 C 165.257812 199.910156 164.996094 198.828125 164.367188 197.949219 C 164.074219 197.542969 163.621094 197.15625 163.128906 197.25 C 162.613281 197.347656 162.335938 197.902344 162.1875 198.402344 C 161.6875 200.082031 161.757812 201.871094 161.835938 203.625 C 161.847656 203.96875 161.863281 204.316406 161.878906 204.660156 M 175.734375 201.191406 C 176.027344 199.523438 177.277344 197.949219 178.949219 197.671875 C 179.320312 197.613281 179.824219 197.714844 179.863281 198.089844 C 179.019531 198.09375 178.183594 198.441406 177.585938 199.039062 C 177.96875 199.429688 178.351562 199.820312 178.800781 200.132812 C 179.121094 200.355469 179.550781 200.535156 179.886719 200.335938 C 180.15625 200.179688 180.253906 199.828125 180.253906 199.511719 C 180.253906 199.199219 180.179688 198.882812 180.214844 198.570312 C 180.265625 198.128906 180.007812 197.703125 179.664062 197.421875 C 179.085938 196.945312 178.261719 196.820312 177.535156 197.015625 C 176.808594 197.210938 176.1875 197.703125 175.746094 198.3125 C 175.8125 197.644531 176.015625 196.976562 176.417969 196.4375 C 176.824219 195.902344 177.445312 195.507812 178.117188 195.472656 C 178.808594 195.433594 179.480469 195.773438 179.96875 196.261719 C 180.460938 196.75 180.785156 197.378906 181.046875 198.015625 C 181.105469 198.160156 181.09375 198.402344 180.941406 198.382812 C 180.75 198.359375 180.5625 198.492188 180.46875 198.660156 C 180.375 198.832031 180.347656 199.027344 180.328125 199.222656 C 180.320312 199.304688 180.3125 199.398438 180.351562 199.472656 C 180.421875 199.601562 180.597656 199.621094 180.746094 199.628906 C 181.394531 199.648438 182.039062 199.667969 182.6875 199.6875 C 182.558594 199.878906 182.285156 199.882812 182.054688 199.867188 C 181.484375 199.824219 180.914062 199.78125 180.34375 199.738281 C 180.519531 200.007812 180.644531 200.308594 180.703125 200.625 C 180.578125 200.460938 180.339844 200.417969 180.140625 200.464844 C 179.9375 200.511719 179.761719 200.632812 179.59375 200.75 C 179.28125 200.972656 178.960938 201.207031 178.789062 201.550781 C 178.617188 201.890625 178.652344 202.367188 178.964844 202.585938 C 178.300781 202.695312 177.632812 202.785156 176.964844 202.847656 C 176.828125 202.863281 176.671875 202.867188 176.570312 202.769531 C 176.4375 202.640625 176.507812 202.398438 176.65625 202.289062 C 176.804688 202.179688 177.003906 202.164062 177.191406 202.15625 C 177.507812 202.136719 177.828125 202.121094 178.148438 202.105469 C 178.589844 202.082031 178.453125 201.234375 178.867188 201.078125 C 178.414062 200.53125 177.910156 200.027344 177.363281 199.578125 C 177.246094 199.480469 177.074219 199.605469 176.980469 199.730469 C 176.15625 200.796875 175.949219 202.304688 176.460938 203.554688 C 176.96875 204.800781 178.171875 205.738281 179.507812 205.921875 C 179.886719 205.976562 180.292969 205.96875 180.628906 205.785156 C 180.964844 205.597656 181.203125 205.199219 181.105469 204.828125 C 181.042969 204.585938 180.847656 204.371094 180.878906 204.121094 C 180.902344 203.933594 180.773438 203.753906 180.609375 203.65625 C 180.449219 203.558594 180.253906 203.53125 180.066406 203.503906 C 179.875 203.476562 179.636719 203.472656 179.550781 203.644531 C 179.277344 204.183594 179.003906 204.722656 178.730469 205.261719 C 178.707031 205.3125 178.679688 205.363281 178.636719 205.402344 C 178.480469 205.535156 178.21875 205.378906 178.179688 205.179688 C 178.140625 204.976562 178.242188 204.78125 178.34375 204.601562 C 178.644531 204.046875 178.953125 203.492188 179.359375 203.007812 C 179.535156 202.796875 179.875 203.007812 180.050781 203.222656 C 180.230469 203.433594 180.53125 203.675781 180.742188 203.496094 C 180.929688 203.339844 180.921875 202.929688 181.164062 202.960938 C 181.136719 203.089844 181.109375 203.222656 181.082031 203.355469 C 181.355469 203.308594 181.640625 203.261719 181.910156 203.316406 C 182.183594 203.375 182.445312 203.554688 182.519531 203.824219 C 182.703125 204.535156 181.503906 205.0625 181.695312 205.773438 C 181.71875 205.859375 181.632812 205.9375 181.554688 205.984375 C 180.214844 206.832031 178.332031 206.578125 177.140625 205.523438 C 175.953125 204.472656 175.460938 202.753906 175.734375 201.191406 M 174.351562 192.683594 C 173.882812 193.808594 173.609375 195.011719 173.539062 196.226562 C 171.246094 196.222656 168.949219 196.21875 166.65625 196.210938 C 166.640625 195.277344 166.8125 194.34375 167.152344 193.472656 C 167.238281 193.253906 167.390625 193.003906 167.625 193.011719 C 169.871094 193.082031 172.121094 192.972656 174.351562 192.683594 M 171.9375 186.582031 C 172.148438 186.378906 172.445312 186.296875 172.726562 186.238281 C 173.304688 186.121094 173.894531 186.070312 174.480469 186.085938 C 174.578125 186.089844 174.683594 186.097656 174.746094 186.171875 C 174.808594 186.242188 174.804688 186.347656 174.800781 186.441406 C 174.730469 187.46875 174.660156 188.5 174.589844 189.53125 C 174.578125 189.65625 174.570312 189.789062 174.5 189.894531 C 174.433594 190 174.285156 190.066406 174.175781 190.003906 C 174.015625 189.914062 173.800781 190.03125 173.722656 190.199219 C 173.644531 190.367188 173.664062 190.5625 173.6875 190.746094 C 173.746094 191.253906 173.804688 191.761719 173.867188 192.269531 C 172.703125 192.289062 171.539062 192.3125 170.375 192.335938 C 170.316406 192.335938 170.246094 192.332031 170.21875 192.28125 C 170.203125 192.246094 170.210938 192.210938 170.21875 192.171875 C 170.542969 190.507812 170.992188 188.871094 171.558594 187.273438 C 171.648438 187.023438 171.746094 186.761719 171.9375 186.582031 M 183.699219 199.101562 C 183.695312 198.972656 183.6875 198.839844 183.683594 198.707031 C 194.558594 198.65625 205.429688 198.644531 216.304688 198.671875 C 216.246094 199.003906 215.8125 199.078125 215.476562 199.078125 C 204.882812 199.085938 194.292969 199.09375 183.699219 199.101562 M 170.007812 205.792969 C 171.707031 205.789062 173.402344 205.789062 175.097656 205.785156 C 175.289062 205.785156 175.515625 205.808594 175.609375 205.972656 C 175.988281 206.640625 176.574219 207.1875 177.265625 207.515625 C 174.203125 207.515625 171.136719 207.519531 168.074219 207.519531 C 168.652344 207.230469 169.113281 206.707031 169.316406 206.09375 C 169.402344 205.835938 169.738281 205.792969 170.007812 205.792969 M 207.332031 201.601562 C 207.226562 201.847656 206.898438 201.886719 206.628906 201.886719 C 203.496094 201.890625 200.363281 201.894531 197.230469 201.902344 C 197.003906 201.902344 196.726562 201.867188 196.644531 201.65625 C 196.453125 201.175781 195.816406 201.101562 195.296875 201.105469 C 190.828125 201.136719 186.359375 201.234375 181.894531 201.394531 C 181.488281 201.410156 181.003906 201.382812 180.785156 201.039062 C 181.167969 201.101562 181.554688 201.101562 181.941406 201.101562 C 189.464844 201.078125 196.984375 201.054688 204.507812 201.03125 C 205.324219 201.027344 206.140625 201.023438 206.957031 201.023438 C 209.707031 201.015625 212.453125 201.007812 215.199219 201.039062 C 212.933594 201.078125 210.667969 201.113281 208.40625 201.152344 C 207.992188 201.15625 207.492188 201.222656 207.332031 201.601562 M 170.898438 186.683594 C 170.566406 186.960938 170.230469 187.238281 169.894531 187.515625 C 170.234375 187.296875 170.578125 187.082031 170.917969 186.867188 C 170.292969 188.589844 169.746094 190.339844 169.285156 192.117188 C 169.238281 192.292969 169.007812 192.335938 168.828125 192.332031 C 167.855469 192.328125 166.886719 192.074219 166.035156 191.605469 C 165.960938 191.5625 165.875 191.507812 165.859375 191.421875 C 165.84375 191.332031 165.914062 191.246094 165.976562 191.175781 C 167.539062 189.492188 169.207031 187.90625 170.96875 186.433594 C 171.054688 186.492188 170.976562 186.617188 170.898438 186.683594 M 189.726562 202.929688 C 189.71875 202.558594 189.707031 202.1875 189.699219 201.816406 C 189.695312 201.757812 189.699219 201.6875 189.738281 201.644531 C 189.78125 201.601562 189.847656 201.601562 189.90625 201.601562 C 191.351562 201.601562 192.792969 201.601562 194.234375 201.601562 C 194.300781 201.601562 194.375 201.601562 194.425781 201.648438 C 194.480469 201.699219 194.484375 201.785156 194.488281 201.863281 C 194.488281 202.222656 194.488281 202.582031 194.488281 202.941406 C 194.488281 202.996094 194.488281 203.0625 194.441406 203.097656 C 194.410156 203.121094 194.367188 203.121094 194.328125 203.121094 C 192.859375 203.125 191.390625 203.132812 189.921875 203.136719 C 189.875 203.136719 189.828125 203.136719 189.789062 203.109375 C 189.738281 203.070312 189.730469 202.996094 189.726562 202.929688 M 212.792969 203.046875 C 212.792969 203.070312 212.792969 203.097656 212.773438 203.113281 C 212.757812 203.125 212.734375 203.128906 212.714844 203.128906 C 211.367188 203.125 210.023438 203.121094 208.679688 203.117188 C 208.617188 203.117188 208.546875 203.113281 208.5 203.070312 C 208.453125 203.023438 208.449219 202.949219 208.449219 202.882812 C 208.449219 202.527344 208.449219 202.171875 208.449219 201.816406 C 208.449219 201.769531 208.449219 201.714844 208.480469 201.675781 C 208.523438 201.605469 208.621094 201.601562 208.699219 201.601562 C 210.027344 201.601562 211.351562 201.601562 212.675781 201.601562 C 212.800781 201.601562 212.835938 201.769531 212.832031 201.894531 C 212.820312 202.277344 212.808594 202.660156 212.792969 203.046875 M 162.648438 204.550781 C 162.308594 202.691406 162.253906 200.726562 162.929688 198.960938 C 163.066406 198.605469 163.257812 198.230469 163.609375 198.078125 C 163.957031 197.925781 164.472656 198.152344 164.449219 198.53125 C 163.867188 198.65625 163.414062 199.148438 163.183594 199.699219 C 162.949219 200.25 162.898438 200.855469 162.851562 201.453125 C 162.839844 201.597656 162.867188 201.796875 163.015625 201.8125 C 163.476562 201.863281 163.933594 201.910156 164.394531 201.960938 C 164.539062 201.972656 164.714844 202.019531 164.738281 202.160156 C 164.769531 202.34375 164.519531 202.425781 164.339844 202.433594 C 163.878906 202.445312 163.421875 202.417969 162.96875 202.347656 C 162.863281 202.332031 162.824219 202.480469 162.832031 202.585938 C 162.863281 203.238281 162.894531 203.902344 163.113281 204.519531 C 163.328125 205.140625 163.757812 205.714844 164.367188 205.953125 C 164.378906 206.246094 164.039062 206.464844 163.75 206.417969 C 163.457031 206.367188 163.230469 206.132812 163.082031 205.882812 C 162.839844 205.480469 162.734375 205.011719 162.648438 204.550781 M 165.902344 198.050781 C 165.988281 197.921875 166.167969 197.910156 166.324219 197.910156 C 168.546875 197.902344 170.773438 197.890625 172.996094 197.882812 C 173.277344 197.882812 173.652344 197.964844 173.660156 198.246094 C 173.667969 198.539062 173.273438 198.632812 172.984375 198.632812 C 170.839844 198.617188 168.695312 198.605469 166.550781 198.59375 C 166.375 198.59375 166.191406 198.589844 166.039062 198.496094 C 165.890625 198.40625 165.800781 198.191406 165.902344 198.050781 M 214.191406 197.878906 C 213.835938 198.277344 213.152344 198.3125 212.761719 197.953125 C 212.589844 197.796875 212.480469 197.582031 212.402344 197.363281 C 212.257812 196.949219 212.238281 196.453125 212.507812 196.101562 C 212.746094 195.792969 213.15625 195.667969 213.546875 195.671875 C 213.714844 195.671875 213.882812 195.695312 214.035156 195.765625 C 214.324219 195.898438 214.515625 196.199219 214.574219 196.515625 C 214.628906 196.832031 214.558594 197.15625 214.441406 197.453125 C 214.378906 197.605469 214.300781 197.753906 214.191406 197.878906 M 210.40625 195.660156 C 210.589844 195.640625 210.773438 195.667969 210.957031 195.699219 C 211.300781 195.753906 211.558594 196.078125 211.625 196.421875 C 211.695312 196.765625 211.609375 197.121094 211.496094 197.449219 C 211.445312 197.585938 211.390625 197.722656 211.308594 197.839844 C 211.042969 198.203125 210.503906 198.308594 210.09375 198.117188 C 209.6875 197.929688 209.421875 197.492188 209.382812 197.042969 C 209.355469 196.726562 209.433594 196.398438 209.617188 196.140625 C 209.800781 195.878906 210.089844 195.691406 210.40625 195.660156 M 193.246094 196.128906 C 193.484375 195.703125 194.054688 195.574219 194.53125 195.667969 C 194.65625 195.695312 194.78125 195.730469 194.890625 195.796875 C 195.144531 195.945312 195.300781 196.226562 195.347656 196.519531 C 195.390625 196.808594 195.335938 197.105469 195.242188 197.382812 C 195.152344 197.640625 195.023438 197.890625 194.808594 198.050781 C 194.425781 198.335938 193.839844 198.234375 193.503906 197.894531 C 193.167969 197.558594 193.054688 197.042969 193.113281 196.570312 C 193.132812 196.417969 193.171875 196.265625 193.246094 196.128906 M 160.332031 188.371094 C 160.410156 188.316406 160.515625 188.34375 160.605469 188.375 C 161.402344 188.648438 162.1875 188.960938 162.949219 189.316406 C 163.066406 189.367188 163.199219 189.449219 163.195312 189.574219 C 163.1875 189.914062 163.230469 190.257812 163.316406 190.585938 C 162.8125 190.574219 162.308594 190.558594 161.804688 190.546875 C 161.746094 190.542969 161.683594 190.542969 161.628906 190.519531 C 161.496094 190.46875 161.433594 190.320312 161.382812 190.1875 C 161.121094 189.535156 160.765625 188.921875 160.332031 188.371094 M 191.808594 197.933594 C 191.652344 198.125 191.402344 198.292969 191.179688 198.195312 C 191.128906 198.175781 191.074219 198.1875 191.019531 198.191406 C 190.730469 198.222656 190.445312 198.046875 190.277344 197.808594 C 190.109375 197.570312 190.035156 197.277344 189.992188 196.988281 C 189.96875 196.808594 189.953125 196.625 189.992188 196.449219 C 190.058594 196.160156 190.28125 195.917969 190.550781 195.785156 C 190.953125 195.589844 191.460938 195.628906 191.828125 195.890625 C 191.945312 195.972656 192.050781 196.078125 192.113281 196.207031 C 192.171875 196.316406 192.195312 196.433594 192.210938 196.554688 C 192.269531 197.042969 192.121094 197.554688 191.808594 197.933594 M 188.574219 198.179688 C 188.238281 198.3125 187.839844 198.195312 187.578125 197.945312 C 187.320312 197.699219 187.1875 197.339844 187.148438 196.984375 C 187.117188 196.683594 187.152344 196.367188 187.316406 196.117188 C 187.53125 195.792969 187.933594 195.632812 188.316406 195.628906 C 188.566406 195.625 188.824219 195.679688 189.019531 195.835938 C 189.222656 196 189.335938 196.265625 189.359375 196.527344 C 189.386719 196.789062 189.328125 197.054688 189.246094 197.304688 C 189.128906 197.667969 188.925781 198.039062 188.574219 198.179688 M 175.144531 199.445312 C 174.914062 200.027344 174.789062 200.652344 174.777344 201.277344 C 174.773438 201.472656 174.777344 201.675781 174.699219 201.855469 C 174.410156 200.664062 174.121094 199.472656 173.835938 198.285156 C 173.804688 198.152344 173.78125 197.992188 173.886719 197.910156 C 173.949219 197.863281 174.03125 197.863281 174.105469 197.863281 C 174.5 197.863281 174.890625 197.859375 175.285156 197.859375 C 175.367188 197.859375 175.464844 197.867188 175.511719 197.933594 C 175.539062 197.972656 175.542969 198.019531 175.546875 198.066406 C 175.566406 198.550781 175.320312 198.996094 175.144531 199.445312 M 162.335938 193.011719 C 162.167969 192.324219 161.996094 191.632812 161.75 190.96875 C 162.273438 190.976562 162.796875 191.003906 163.320312 191.046875 C 163.417969 191.054688 163.550781 191.125 163.503906 191.210938 C 163.425781 191.34375 163.496094 191.507812 163.546875 191.652344 C 163.601562 191.796875 163.632812 191.988281 163.511719 192.082031 C 163.117188 192.390625 162.726562 192.703125 162.335938 193.011719 M 209.628906 191.566406 C 209.683594 191.957031 209.734375 192.347656 209.785156 192.738281 C 209.792969 192.777344 209.769531 192.839844 209.734375 192.824219 C 209.238281 192.59375 208.714844 192.421875 208.179688 192.308594 C 208.019531 192.277344 207.90625 192.121094 207.871094 191.960938 C 207.832031 191.800781 207.859375 191.632812 207.886719 191.472656 C 207.894531 191.425781 207.90625 191.375 207.949219 191.351562 C 207.96875 191.34375 207.988281 191.34375 208.011719 191.339844 C 208.421875 191.324219 208.828125 191.308594 209.238281 191.296875 C 209.363281 191.292969 209.511719 191.296875 209.582031 191.402344 C 209.613281 191.449219 209.621094 191.507812 209.628906 191.566406 M 183.507812 199.183594 C 183.511719 199.214844 183.515625 199.25 183.503906 199.285156 C 183.472656 199.382812 183.339844 199.398438 183.238281 199.394531 C 182.335938 199.371094 181.4375 199.359375 180.539062 199.351562 C 180.507812 199.121094 180.519531 198.820312 180.738281 198.742188 C 180.792969 198.722656 180.855469 198.722656 180.914062 198.722656 C 181.761719 198.726562 182.609375 198.726562 183.460938 198.726562 C 183.476562 198.878906 183.492188 199.03125 183.507812 199.183594 M 181.046875 202.726562 C 180.796875 202.792969 180.519531 202.761719 180.308594 202.609375 C 180.101562 202.460938 179.976562 202.1875 180.03125 201.9375 C 180.085938 201.683594 180.328125 201.480469 180.585938 201.492188 C 180.851562 201.507812 181.117188 201.527344 181.382812 201.542969 C 181.40625 201.84375 181.367188 202.152344 181.273438 202.441406 C 181.234375 202.5625 181.167969 202.691406 181.046875 202.726562 M 159.078125 198.609375 C 159.121094 198.429688 159.355469 198.394531 159.535156 198.394531 C 160.054688 198.394531 160.574219 198.398438 161.09375 198.398438 C 161.132812 198.398438 161.171875 198.398438 161.203125 198.421875 C 161.234375 198.445312 161.246094 198.492188 161.253906 198.53125 C 161.277344 198.632812 161.300781 198.738281 161.273438 198.839844 C 161.25 198.941406 161.160156 199.035156 161.058594 199.027344 C 160.726562 199.015625 160.398438 199 160.066406 198.988281 C 159.90625 198.980469 159.75 198.972656 159.589844 198.96875 C 159.472656 198.964844 159.347656 198.957031 159.242188 198.902344 C 159.132812 198.84375 159.050781 198.726562 159.078125 198.609375 M 160.550781 194.320312 C 160.671875 194.128906 160.84375 193.941406 161.070312 193.921875 C 160.613281 194.65625 160.363281 195.515625 160.359375 196.382812 C 160.359375 196.496094 160.363281 196.617188 160.300781 196.714844 C 160.242188 196.8125 160.09375 196.863281 160.011719 196.78125 C 159.953125 196.726562 159.953125 196.632812 159.960938 196.550781 C 160.027344 195.777344 160.136719 194.976562 160.550781 194.320312 M 174.367188 204.984375 C 174.328125 204.949219 174.332031 204.882812 174.339844 204.832031 C 174.402344 204.402344 174.46875 203.972656 174.535156 203.542969 C 174.542969 203.492188 174.554688 203.429688 174.605469 203.410156 C 174.683594 203.378906 174.746094 203.476562 174.773438 203.550781 C 174.941406 204.027344 175.113281 204.503906 175.28125 204.980469 C 175.011719 205.011719 174.742188 205.023438 174.46875 205.011719 C 174.433594 205.011719 174.394531 205.007812 174.367188 204.984375 M 190.242188 203.449219 C 191.164062 203.433594 192.082031 203.417969 193.003906 203.402344 C 193.5 203.394531 193.996094 203.386719 194.492188 203.421875 C 194.761719 203.4375 195.035156 203.46875 195.285156 203.578125 C 195.535156 203.683594 195.757812 203.875 195.847656 204.132812 C 195.378906 203.574219 194.558594 203.519531 193.828125 203.507812 C 192.632812 203.488281 191.4375 203.46875 190.242188 203.449219 M 186.613281 191.273438 C 187.011719 191.289062 187.410156 191.308594 187.804688 191.324219 C 187.988281 191.332031 188.171875 191.339844 188.355469 191.332031 C 188.734375 191.316406 189.109375 191.230469 189.480469 191.144531 C 189.527344 191.164062 189.53125 191.238281 189.496094 191.277344 C 189.460938 191.316406 189.40625 191.332031 189.355469 191.34375 C 188.453125 191.539062 187.507812 191.558594 186.597656 191.402344 C 186.601562 191.359375 186.609375 191.316406 186.613281 191.273438 M 177.105469 191.417969 C 177.523438 191.359375 177.949219 191.347656 178.367188 191.378906 C 178.503906 191.386719 178.675781 191.441406 178.675781 191.578125 C 178.058594 191.589844 177.441406 191.601562 176.828125 191.613281 C 176.824219 191.488281 176.980469 191.433594 177.105469 191.417969 M 212.738281 203.398438 C 212.792969 203.398438 212.871094 203.433594 212.84375 203.480469 C 211.503906 203.496094 210.164062 203.515625 208.824219 203.53125 C 208.78125 203.488281 208.867188 203.433594 208.929688 203.433594 C 210.199219 203.421875 211.46875 203.410156 212.738281 203.398438 M 190.414062 191.300781 C 190.710938 191.28125 191.007812 191.300781 191.300781 191.355469 C 191.453125 191.382812 191.617188 191.429688 191.699219 191.558594 C 191.183594 191.542969 190.667969 191.535156 190.152344 191.539062 C 190.117188 191.476562 190.152344 191.394531 190.210938 191.355469 C 190.269531 191.3125 190.34375 191.304688 190.414062 191.300781 M 164.800781 204.152344 C 164.796875 204.195312 164.792969 204.238281 164.765625 204.273438 C 164.746094 204.296875 164.714844 204.3125 164.683594 204.3125 C 164.652344 203.863281 164.699219 203.40625 164.820312 202.972656 C 164.863281 203.363281 164.832031 203.757812 164.800781 204.152344 M 207.675781 204.042969 C 207.671875 204.085938 207.644531 204.125 207.609375 204.144531 C 207.472656 204.019531 207.460938 203.777344 207.589844 203.640625 C 207.664062 203.757812 207.691406 203.90625 207.667969 204.042969 M 208.472656 203.457031 C 208.570312 203.4375 208.695312 203.425781 208.75 203.507812 C 208.625 203.542969 208.492188 203.542969 208.371094 203.511719 C 208.347656 203.46875 208.421875 203.441406 208.472656 203.453125 M 164.808594 200.90625 C 164.855469 200.9375 164.832031 201.023438 164.777344 201.023438 C 164.730469 200.992188 164.757812 200.902344 164.8125 200.902344 Z M 164.808594 200.90625 " fill-opacity="1" fill-rule="nonzero"/></g><g clip-path="url(#83d5f76d93)"><g clip-path="url(#849abb9123)"><g clip-path="url(#0a4dcfacba)"><path fill="#000000" d="M 213.414062 182.046875 L 215.421875 188.363281 L 200.367188 180.75 L 205.238281 189.042969 C 205.238281 189.042969 190.203125 179.320312 187.019531 178.851562 L 190.109375 183.921875 C 190.109375 183.921875 180.023438 178.359375 177.78125 178.796875 L 179.28125 181.171875 C 179.28125 181.171875 165.269531 175.902344 160.070312 176.535156 C 160.070312 176.535156 167.777344 175.167969 174.945312 177.867188 L 173.859375 175.851562 C 173.859375 175.851562 178.964844 176.230469 182.601562 177.660156 L 181.113281 174.34375 C 181.113281 174.34375 191.625 176.167969 195.597656 178.808594 L 194.28125 175.328125 C 194.269531 175.316406 207.25 178.640625 213.414062 182.046875 Z M 213.414062 182.046875 " fill-opacity="1" fill-rule="nonzero"/></g></g></g><path fill="#000000" d="M 212.710938 208.777344 L 161.898438 208.777344 L 161.898438 209.347656 Z M 212.710938 208.777344 " fill-opacity="1" fill-rule="nonzero"/><g clip-path="url(#277a5ec656)"><path fill="#ffffff" d="M 158.023438 206.261719 L 161.546875 206.261719 L 162.089844 207.351562 L 216.203125 207.351562 L 162.4375 207.351562 L 161.832031 207.804688 L 161.289062 206.867188 L 158.980469 206.867188 L 160.90625 210.355469 L 209.0625 210.355469 L 160.648438 210.804688 L 158.023438 206.261719 " fill-opacity="1" fill-rule="nonzero"/></g></svg>