<svg xmlns="http://www.w3.org/2000/svg" xmlns:xlink="http://www.w3.org/1999/xlink" width="500" zoomAndPan="magnify" viewBox="0 0 375 374.999991" height="500" preserveAspectRatio="xMidYMid meet" version="1.0"><defs><g/><clipPath id="0979dfd5d8"><path d="M 38.179688 165 L 96.433594 165 L 96.433594 207.6875 L 38.179688 207.6875 Z M 38.179688 165 " clip-rule="nonzero"/></clipPath><clipPath id="194d97e461"><path d="M 39 174 L 95 174 L 95 190 L 39 190 Z M 39 174 " clip-rule="nonzero"/></clipPath><clipPath id="2d2f2f0cb2"><path d="M 40.679688 169.777344 L 96.15625 179.058594 L 94.179688 190.894531 L 38.699219 181.613281 Z M 40.679688 169.777344 " clip-rule="nonzero"/></clipPath><clipPath id="f92cfad896"><path d="M 96.515625 179.117188 L 41.035156 169.839844 L 39.058594 181.671875 L 94.535156 190.953125 Z M 96.515625 179.117188 " clip-rule="nonzero"/></clipPath><clipPath id="08f302c6f5"><path d="M 37.535156 206.261719 L 95.71875 206.261719 L 95.71875 210.761719 L 37.535156 210.761719 Z M 37.535156 206.261719 " clip-rule="nonzero"/></clipPath></defs><path fill="#004aad" d="M 71.675781 193.234375 C 70.476562 193.234375 69.273438 193.238281 68.085938 193.0625 C 68.4375 193.410156 68.988281 193.429688 69.480469 193.429688 C 74.347656 193.429688 79.210938 193.425781 84.074219 193.425781 C 84.574219 193.425781 85.085938 193.429688 85.542969 193.617188 C 85.601562 193.429688 85.351562 193.304688 85.15625 193.277344 C 84.707031 193.214844 84.253906 193.214844 83.800781 193.214844 C 79.757812 193.222656 75.71875 193.226562 71.675781 193.234375 Z M 71.675781 193.234375 " fill-opacity="1" fill-rule="nonzero"/><path fill="#004aad" d="M 66.652344 193.425781 C 65.457031 193.003906 64.257812 192.613281 63.046875 192.25 C 62.761719 192.164062 62.476562 192.078125 62.179688 192.070312 C 62.101562 192.070312 61.992188 192.136719 62.046875 192.195312 C 63.757812 192.625 65.445312 193.167969 67.085938 193.820312 C 67.230469 193.878906 67.394531 193.9375 67.53125 193.863281 C 67.28125 193.652344 66.960938 193.535156 66.652344 193.425781 Z M 66.652344 193.425781 " fill-opacity="1" fill-rule="nonzero"/><path fill="#004aad" d="M 77.105469 195.738281 C 77.207031 195.84375 77.371094 195.851562 77.519531 195.851562 C 80.824219 195.851562 84.125 195.851562 87.425781 195.847656 C 87.519531 195.761719 87.339844 195.644531 87.214844 195.644531 C 84.078125 195.644531 80.941406 195.644531 77.808594 195.644531 C 77.570312 195.644531 77.324219 195.644531 77.105469 195.738281 Z M 77.105469 195.738281 " fill-opacity="1" fill-rule="nonzero"/><path fill="#004aad" d="M 81.523438 196.28125 C 81.457031 196.546875 81.433594 196.820312 81.453125 197.09375 C 81.464844 197.238281 81.496094 197.394531 81.617188 197.476562 C 81.941406 197.699219 82.390625 197.855469 82.714844 197.632812 C 82.933594 197.480469 83.019531 197.199219 83.089844 196.9375 C 83.117188 196.84375 83.144531 196.75 83.167969 196.652344 C 83.203125 196.53125 83.234375 196.398438 83.175781 196.285156 C 83.082031 196.113281 82.839844 196.105469 82.644531 196.121094 C 82.300781 196.152344 81.953125 196.183594 81.609375 196.214844 C 81.585938 196.214844 81.558594 196.21875 81.539062 196.238281 C 81.53125 196.25 81.527344 196.265625 81.523438 196.28125 Z M 81.523438 196.28125 " fill-opacity="1" fill-rule="nonzero"/><path fill="#004aad" d="M 88.3125 194.660156 C 88.351562 194.628906 88.375 194.582031 88.386719 194.535156 C 88.195312 194.4375 88.003906 194.335938 87.8125 194.238281 C 88.855469 194.15625 89.910156 194.199219 90.941406 194.363281 C 90.988281 194.3125 90.964844 194.226562 90.914062 194.183594 C 90.859375 194.140625 90.789062 194.128906 90.722656 194.117188 C 90.09375 194.023438 89.453125 193.992188 88.816406 194.015625 C 88.304688 194.03125 87.785156 194.089844 87.28125 194 C 87.136719 193.972656 86.964844 193.945312 86.863281 194.050781 C 87.347656 194.253906 87.828125 194.457031 88.3125 194.660156 Z M 88.3125 194.660156 " fill-opacity="1" fill-rule="nonzero"/><path fill="#004aad" d="M 93.734375 196.710938 C 93.898438 196.636719 93.925781 196.402344 93.835938 196.25 C 93.71875 196.042969 93.460938 195.953125 93.222656 195.953125 C 92.832031 195.957031 92.453125 196.171875 92.246094 196.5 C 92.472656 196.636719 92.742188 196.664062 93.003906 196.6875 C 93.167969 196.699219 93.332031 196.714844 93.496094 196.730469 C 93.578125 196.738281 93.660156 196.742188 93.734375 196.710938 Z M 93.734375 196.710938 " fill-opacity="1" fill-rule="nonzero"/><path fill="#004aad" d="M 54.835938 195.46875 C 54.964844 195.527344 55.117188 195.449219 55.253906 195.488281 C 55.367188 195.515625 55.488281 195.449219 55.558594 195.355469 C 55.628906 195.257812 55.65625 195.140625 55.679688 195.027344 C 55.714844 194.886719 55.726562 194.707031 55.601562 194.640625 C 55.554688 194.617188 55.5 194.617188 55.449219 194.613281 C 55.347656 194.613281 55.246094 194.613281 55.144531 194.613281 C 55.027344 194.613281 54.894531 194.617188 54.808594 194.699219 C 54.742188 194.765625 54.722656 194.863281 54.703125 194.953125 C 54.667969 195.140625 54.660156 195.386719 54.835938 195.46875 M 55.417969 194.832031 C 55.441406 194.835938 55.464844 194.84375 55.480469 194.863281 C 55.492188 194.875 55.496094 194.890625 55.496094 194.910156 C 55.515625 195.046875 55.441406 195.1875 55.324219 195.253906 C 55.203125 195.320312 55.042969 195.304688 54.9375 195.214844 C 54.828125 195.125 54.882812 194.933594 55.003906 194.859375 C 55.125 194.789062 55.277344 194.804688 55.417969 194.832031 Z M 55.417969 194.832031 " fill-opacity="1" fill-rule="nonzero"/><path fill="#004aad" d="M 47.417969 193.929688 C 47.261719 193.949219 47.097656 194.019531 47.039062 194.160156 C 46.992188 194.28125 47.03125 194.421875 46.980469 194.539062 C 46.925781 194.652344 47.089844 194.742188 47.214844 194.765625 C 47.375 194.792969 47.542969 194.816406 47.703125 194.785156 C 47.863281 194.753906 48.019531 194.648438 48.070312 194.492188 C 48.121094 194.328125 48.039062 194.144531 47.902344 194.042969 C 47.765625 193.9375 47.585938 193.910156 47.417969 193.929688 M 47.261719 194.535156 C 47.15625 194.457031 47.191406 194.277344 47.300781 194.203125 C 47.410156 194.128906 47.550781 194.140625 47.679688 194.164062 C 47.714844 194.171875 47.746094 194.179688 47.773438 194.199219 C 47.886719 194.265625 47.859375 194.449219 47.753906 194.527344 C 47.648438 194.605469 47.503906 194.597656 47.378906 194.574219 C 47.335938 194.566406 47.296875 194.558594 47.261719 194.535156 Z M 47.261719 194.535156 " fill-opacity="1" fill-rule="nonzero"/><path fill="#004aad" d="M 70.980469 195.910156 C 70.601562 195.832031 70.1875 195.953125 69.90625 196.21875 C 69.839844 196.285156 69.773438 196.367188 69.765625 196.464844 C 69.761719 196.5625 69.835938 196.667969 69.933594 196.660156 C 70.394531 196.609375 70.863281 196.648438 71.308594 196.765625 C 71.503906 196.695312 71.570312 196.429688 71.480469 196.246094 C 71.386719 196.058594 71.183594 195.953125 70.980469 195.910156 Z M 70.980469 195.910156 " fill-opacity="1" fill-rule="nonzero"/><path fill="#004aad" d="M 90.332031 195.914062 C 90.253906 195.941406 90.179688 196.003906 90.101562 195.988281 C 89.835938 195.941406 89.640625 196.230469 89.578125 196.492188 C 89.570312 196.535156 89.5625 196.585938 89.574219 196.628906 C 89.609375 196.769531 89.789062 196.796875 89.933594 196.796875 C 90.160156 196.796875 90.382812 196.792969 90.605469 196.792969 C 90.667969 196.792969 90.734375 196.789062 90.773438 196.746094 C 90.800781 196.722656 90.8125 196.683594 90.824219 196.648438 C 90.867188 196.472656 90.875 196.277344 90.789062 196.117188 C 90.703125 195.957031 90.503906 195.851562 90.332031 195.914062 Z M 90.332031 195.914062 " fill-opacity="1" fill-rule="nonzero"/><path fill="#004aad" d="M 74.1875 196.730469 C 74.316406 196.738281 74.472656 196.738281 74.558594 196.636719 C 74.6875 196.484375 74.554688 196.257812 74.425781 196.105469 C 74.3125 195.96875 74.179688 195.828125 74.003906 195.8125 C 73.917969 195.804688 73.832031 195.828125 73.75 195.859375 C 73.488281 195.953125 73.242188 196.082031 73.019531 196.246094 C 72.953125 196.296875 72.886719 196.351562 72.855469 196.429688 C 72.828125 196.503906 72.847656 196.609375 72.921875 196.644531 C 72.953125 196.65625 72.984375 196.660156 73.011719 196.660156 C 73.402344 196.683594 73.792969 196.707031 74.1875 196.730469 Z M 74.1875 196.730469 " fill-opacity="1" fill-rule="nonzero"/><path fill="#004aad" d="M 68.355469 196.761719 C 68.394531 196.773438 68.433594 196.785156 68.472656 196.78125 C 68.636719 196.769531 68.679688 196.546875 68.640625 196.390625 C 68.570312 196.097656 68.34375 195.820312 68.042969 195.785156 C 67.800781 195.761719 67.574219 195.890625 67.367188 196.015625 C 67.234375 196.101562 67.085938 196.195312 67.035156 196.34375 C 66.980469 196.496094 67.089844 196.703125 67.246094 196.679688 C 67.617188 196.625 67.996094 196.652344 68.355469 196.761719 Z M 68.355469 196.761719 " fill-opacity="1" fill-rule="nonzero"/><g clip-path="url(#0979dfd5d8)"><path fill="#004aad" d="M 92.332031 193.804688 C 93.070312 184.941406 89.003906 175.777344 81.820312 170.527344 C 74.636719 165.28125 64.570312 164.203125 56.515625 167.980469 C 48.457031 171.757812 42.816406 180.292969 42.671875 189.1875 C 41.675781 188.589844 40.527344 188.246094 39.367188 188.199219 C 39.886719 190.011719 40.40625 191.828125 40.925781 193.640625 C 40.039062 193.644531 39.523438 194.664062 39.410156 195.542969 C 39.296875 196.425781 39.339844 197.410156 38.757812 198.082031 C 38.511719 198.359375 38.179688 198.816406 38.496094 199.011719 C 39.292969 199.507812 39.9375 200.238281 40.335938 201.085938 C 41.34375 203.25 40.910156 206.324219 42.960938 207.550781 C 41.882812 207.277344 40.707031 207.433594 39.734375 207.972656 C 57.894531 208.007812 76.054688 208 94.214844 207.949219 C 92.574219 207.257812 90.714844 207.425781 88.945312 207.605469 C 90.546875 205.996094 92.953125 205.230469 95.191406 205.617188 C 94.347656 204.402344 93.460938 203.011719 93.722656 201.554688 C 95.445312 201.113281 96.433594 199.050781 96.011719 197.324219 C 95.585938 195.597656 94.039062 194.300781 92.332031 193.804688 M 54.554688 186.171875 C 54.558594 185.90625 54.558594 185.617188 54.402344 185.402344 C 54.160156 185.066406 53.667969 185.054688 53.257812 185.125 C 51.484375 185.429688 49.996094 186.601562 48.628906 187.777344 C 47.324219 188.890625 46.054688 190.046875 44.816406 191.230469 C 44.417969 191.613281 44.65625 192.339844 45.128906 192.617188 C 45.597656 192.898438 46.1875 192.867188 46.734375 192.824219 C 46.265625 193.894531 45.96875 195.035156 45.855469 196.191406 C 45.113281 196.460938 44.359375 195.757812 43.570312 195.765625 C 42.9375 195.773438 42.414062 196.222656 41.882812 196.554688 C 41.347656 196.890625 40.605469 197.109375 40.125 196.699219 C 39.851562 195.71875 40.308594 194.65625 40.996094 193.902344 C 41.683594 193.148438 42.582031 192.628906 43.410156 192.035156 C 46.644531 189.734375 49.132812 186.210938 52.910156 184.996094 C 54.566406 184.460938 56.339844 184.429688 58.078125 184.414062 C 62.25 184.378906 66.421875 184.433594 70.589844 184.570312 C 71.527344 184.601562 72.492188 184.644531 73.351562 185.023438 C 74.183594 185.390625 74.847656 186.042969 75.496094 186.679688 C 77.1875 188.351562 78.875 190.023438 80.566406 191.695312 C 78.78125 190.035156 77 188.375 75.214844 186.71875 C 74.582031 186.128906 73.925781 185.523438 73.121094 185.207031 C 72.402344 184.925781 71.617188 184.890625 70.847656 184.863281 C 66.089844 184.691406 61.320312 184.6875 56.558594 184.851562 C 56.128906 184.863281 55.636719 184.910156 55.367188 185.25 C 55.164062 185.503906 55.148438 185.855469 55.144531 186.179688 C 55.109375 187.824219 55.074219 189.464844 55.039062 191.109375 C 55.035156 191.308594 55.042969 191.539062 55.195312 191.667969 C 55.316406 191.773438 55.496094 191.777344 55.65625 191.777344 C 62.777344 191.78125 69.894531 191.78125 77.015625 191.785156 C 82.382812 191.785156 87.960938 191.835938 92.789062 194.179688 C 94.390625 194.957031 96.066406 196.371094 95.820312 198.132812 C 95.703125 197.460938 95.578125 196.769531 95.234375 196.175781 C 94.890625 195.585938 94.28125 195.097656 93.597656 195.097656 C 92.207031 195.101562 90.820312 195.101562 89.429688 195.101562 C 88.804688 195.101562 88.328125 195.667969 88.058594 196.234375 C 87.785156 196.796875 87.609375 197.433594 87.152344 197.867188 C 86.523438 198.460938 85.5625 198.488281 84.695312 198.480469 C 82.507812 198.460938 80.320312 198.441406 78.132812 198.421875 C 77.527344 198.414062 77.074219 197.867188 76.820312 197.324219 C 76.566406 196.777344 76.410156 196.164062 75.988281 195.734375 C 75.359375 195.09375 74.355469 195.0625 73.460938 195.070312 C 71.648438 195.089844 69.835938 195.105469 68.023438 195.125 C 67.671875 195.125 67.300781 195.132812 66.988281 195.292969 C 66.289062 195.648438 66.140625 196.554688 65.789062 197.253906 C 65.4375 197.953125 64.332031 198.457031 63.953125 197.769531 C 64.394531 196.894531 64.972656 196.089844 65.660156 195.390625 C 65.113281 195.347656 64.859375 196.023438 64.617188 196.511719 C 64.15625 197.425781 63.140625 198.023438 62.121094 197.980469 C 61.101562 197.9375 60.136719 197.257812 59.753906 196.308594 C 59.316406 195.214844 57.75 195.226562 56.644531 195.640625 C 55.542969 196.058594 54.328125 196.6875 53.257812 196.191406 C 54.039062 192.910156 54.472656 189.546875 54.554688 186.171875 M 70.109375 191.050781 C 69.773438 191.050781 69.359375 190.996094 69.238281 190.679688 C 69.015625 190.089844 68.453125 189.6875 67.851562 189.5 C 67.253906 189.3125 66.613281 189.3125 65.988281 189.3125 C 65.25 189.3125 64.5 189.3125 63.796875 189.523438 C 63.089844 189.734375 62.417969 190.183594 62.121094 190.859375 C 62.039062 191.046875 61.789062 191.074219 61.585938 191.078125 C 59.761719 191.089844 57.941406 191.101562 56.117188 191.113281 C 56.027344 191.113281 55.925781 191.113281 55.859375 191.050781 C 55.789062 190.988281 55.777344 190.882812 55.773438 190.789062 C 55.695312 189.378906 55.683594 187.96875 55.742188 186.558594 C 55.75 186.324219 55.78125 186.058594 55.972656 185.925781 C 56.097656 185.835938 56.265625 185.832031 56.417969 185.832031 C 61.5625 185.832031 66.707031 185.832031 71.847656 185.828125 C 72.28125 185.828125 72.722656 185.832031 73.125 185.984375 C 73.554688 186.144531 73.902344 186.464844 74.238281 186.78125 C 75.769531 188.214844 77.285156 189.667969 78.777344 191.140625 C 75.886719 191.113281 73 191.082031 70.109375 191.050781 M 84.867188 204.347656 C 87.351562 204.421875 89.851562 204.582031 92.316406 204.246094 C 92.863281 204.171875 93.429688 204.078125 93.953125 204.246094 C 94.480469 204.417969 94.929688 204.964844 94.78125 205.496094 C 83.660156 205.449219 72.539062 205.457031 61.421875 205.523438 C 61.46875 204.996094 61.914062 204.578125 62.410156 204.394531 C 62.90625 204.214844 63.449219 204.226562 63.976562 204.238281 C 67.933594 204.339844 71.890625 204.4375 75.847656 204.539062 C 75.757812 204.472656 75.671875 204.402344 75.582031 204.335938 C 78.675781 204.292969 81.773438 204.253906 84.867188 204.347656 M 66.769531 205.667969 C 71.644531 205.667969 76.515625 205.671875 81.386719 205.671875 C 81.566406 205.671875 81.792969 205.703125 81.851562 205.875 C 82.128906 206.679688 82.835938 207.320312 83.664062 207.515625 C 77.101562 207.515625 70.539062 207.515625 63.972656 207.515625 C 64.820312 207.242188 65.5625 206.664062 66.042969 205.917969 C 66.1875 205.691406 66.503906 205.667969 66.769531 205.667969 M 41.390625 204.660156 C 41.070312 204.628906 41.039062 204.179688 41.078125 203.859375 C 41.195312 202.921875 41.101562 201.976562 41.046875 201.035156 C 40.992188 200.097656 40.980469 199.136719 41.246094 198.230469 C 41.515625 197.328125 42.105469 196.480469 42.96875 196.105469 C 43.285156 195.96875 43.644531 195.898438 43.96875 196.011719 C 44.375 196.148438 44.640625 196.546875 44.820312 196.941406 C 45.109375 197.585938 45.238281 198.285156 45.40625 198.972656 C 45.691406 200.152344 46.089844 201.308594 46.589844 202.417969 C 46.742188 202.75 46.925781 203.105469 47.257812 203.265625 C 47.480469 203.375 47.738281 203.378906 47.984375 203.382812 C 49.902344 203.394531 51.816406 203.410156 53.730469 203.421875 C 53.808594 203.421875 53.824219 203.535156 53.816406 203.609375 C 53.761719 204.003906 53.707031 204.394531 53.65625 204.789062 C 53.648438 204.84375 53.640625 204.902344 53.601562 204.941406 C 53.550781 204.996094 53.472656 205 53.398438 205 C 50.8125 205.011719 48.226562 205.027344 45.640625 205.039062 C 45.53125 205.039062 45.378906 205.007812 45.375 204.894531 C 45.328125 203.578125 45.191406 202.269531 44.960938 200.972656 C 44.773438 199.910156 44.507812 198.828125 43.878906 197.949219 C 43.589844 197.542969 43.132812 197.15625 42.640625 197.25 C 42.128906 197.347656 41.851562 197.902344 41.703125 198.402344 C 41.203125 200.082031 41.273438 201.871094 41.347656 203.625 C 41.363281 203.96875 41.375 204.316406 41.390625 204.660156 M 55.25 201.191406 C 55.539062 199.523438 56.792969 197.949219 58.464844 197.671875 C 58.835938 197.613281 59.339844 197.714844 59.375 198.089844 C 58.53125 198.09375 57.695312 198.441406 57.101562 199.039062 C 57.480469 199.429688 57.867188 199.820312 58.3125 200.132812 C 58.632812 200.355469 59.0625 200.535156 59.398438 200.335938 C 59.671875 200.179688 59.769531 199.828125 59.765625 199.511719 C 59.765625 199.199219 59.691406 198.882812 59.726562 198.570312 C 59.777344 198.128906 59.519531 197.703125 59.179688 197.421875 C 58.597656 196.945312 57.773438 196.820312 57.046875 197.015625 C 56.324219 197.210938 55.699219 197.703125 55.261719 198.3125 C 55.324219 197.644531 55.527344 196.976562 55.933594 196.4375 C 56.335938 195.902344 56.960938 195.507812 57.632812 195.472656 C 58.320312 195.433594 58.996094 195.773438 59.484375 196.261719 C 59.972656 196.75 60.296875 197.378906 60.558594 198.015625 C 60.617188 198.160156 60.605469 198.402344 60.453125 198.382812 C 60.261719 198.359375 60.078125 198.492188 59.980469 198.660156 C 59.886719 198.832031 59.863281 199.027344 59.839844 199.222656 C 59.832031 199.304688 59.824219 199.398438 59.867188 199.472656 C 59.9375 199.601562 60.113281 199.621094 60.257812 199.628906 C 60.90625 199.648438 61.550781 199.667969 62.199219 199.6875 C 62.074219 199.878906 61.796875 199.882812 61.566406 199.867188 C 60.996094 199.824219 60.429688 199.78125 59.859375 199.738281 C 60.035156 200.007812 60.15625 200.308594 60.214844 200.625 C 60.089844 200.460938 59.855469 200.417969 59.652344 200.464844 C 59.449219 200.511719 59.277344 200.632812 59.105469 200.75 C 58.796875 200.972656 58.476562 201.207031 58.304688 201.550781 C 58.132812 201.890625 58.164062 202.367188 58.476562 202.585938 C 57.8125 202.695312 57.148438 202.785156 56.480469 202.847656 C 56.339844 202.863281 56.183594 202.867188 56.085938 202.769531 C 55.953125 202.640625 56.019531 202.398438 56.167969 202.289062 C 56.320312 202.179688 56.515625 202.164062 56.703125 202.15625 C 57.023438 202.136719 57.339844 202.121094 57.660156 202.105469 C 58.105469 202.082031 57.964844 201.234375 58.382812 201.078125 C 57.929688 200.53125 57.425781 200.027344 56.878906 199.578125 C 56.757812 199.480469 56.585938 199.605469 56.492188 199.730469 C 55.667969 200.796875 55.464844 202.304688 55.972656 203.554688 C 56.480469 204.800781 57.683594 205.738281 59.019531 205.921875 C 59.398438 205.976562 59.804688 205.96875 60.140625 205.785156 C 60.476562 205.597656 60.71875 205.199219 60.621094 204.828125 C 60.554688 204.585938 60.359375 204.371094 60.390625 204.121094 C 60.417969 203.933594 60.289062 203.753906 60.125 203.65625 C 59.960938 203.558594 59.765625 203.53125 59.578125 203.503906 C 59.390625 203.476562 59.148438 203.472656 59.0625 203.644531 C 58.789062 204.183594 58.515625 204.722656 58.242188 205.261719 C 58.21875 205.3125 58.191406 205.363281 58.148438 205.402344 C 57.996094 205.535156 57.734375 205.378906 57.695312 205.179688 C 57.65625 204.976562 57.757812 204.78125 57.855469 204.601562 C 58.160156 204.046875 58.464844 203.492188 58.871094 203.007812 C 59.050781 202.796875 59.386719 203.007812 59.566406 203.222656 C 59.742188 203.433594 60.042969 203.675781 60.253906 203.496094 C 60.441406 203.339844 60.433594 202.929688 60.675781 202.960938 C 60.648438 203.089844 60.625 203.222656 60.597656 203.355469 C 60.871094 203.308594 61.152344 203.261719 61.421875 203.316406 C 61.695312 203.375 61.960938 203.554688 62.03125 203.824219 C 62.21875 204.535156 61.019531 205.0625 61.207031 205.773438 C 61.230469 205.859375 61.148438 205.9375 61.070312 205.984375 C 59.726562 206.832031 57.84375 206.578125 56.65625 205.523438 C 55.46875 204.472656 54.976562 202.753906 55.25 201.191406 M 53.863281 192.683594 C 53.398438 193.808594 53.121094 195.011719 53.054688 196.226562 C 50.757812 196.222656 48.464844 196.21875 46.167969 196.210938 C 46.15625 195.277344 46.324219 194.34375 46.667969 193.472656 C 46.753906 193.253906 46.902344 193.003906 47.136719 193.011719 C 49.382812 193.082031 51.636719 192.972656 53.863281 192.683594 M 51.453125 186.582031 C 51.664062 186.378906 51.957031 186.296875 52.242188 186.238281 C 52.816406 186.121094 53.40625 186.070312 53.996094 186.085938 C 54.089844 186.089844 54.195312 186.097656 54.261719 186.171875 C 54.324219 186.242188 54.320312 186.347656 54.3125 186.441406 C 54.242188 187.46875 54.171875 188.5 54.101562 189.53125 C 54.09375 189.65625 54.082031 189.789062 54.011719 189.894531 C 53.945312 190 53.796875 190.066406 53.6875 190.003906 C 53.527344 189.914062 53.3125 190.03125 53.234375 190.199219 C 53.15625 190.367188 53.179688 190.5625 53.199219 190.746094 C 53.257812 191.253906 53.320312 191.761719 53.378906 192.269531 C 52.214844 192.289062 51.050781 192.3125 49.890625 192.335938 C 49.832031 192.335938 49.761719 192.332031 49.734375 192.28125 C 49.714844 192.246094 49.722656 192.210938 49.730469 192.171875 C 50.054688 190.507812 50.503906 188.871094 51.074219 187.273438 C 51.160156 187.023438 51.257812 186.761719 51.453125 186.582031 M 63.210938 199.101562 C 63.207031 198.972656 63.203125 198.839844 63.195312 198.707031 C 74.070312 198.65625 84.945312 198.644531 95.816406 198.671875 C 95.757812 199.003906 95.324219 199.078125 94.992188 199.078125 C 84.398438 199.085938 73.804688 199.09375 63.210938 199.101562 M 49.523438 205.792969 C 51.21875 205.789062 52.914062 205.789062 54.609375 205.785156 C 54.800781 205.785156 55.027344 205.808594 55.125 205.972656 C 55.5 206.640625 56.089844 207.1875 56.78125 207.515625 C 53.714844 207.515625 50.652344 207.519531 47.585938 207.519531 C 48.167969 207.230469 48.625 206.707031 48.828125 206.09375 C 48.914062 205.835938 49.253906 205.792969 49.523438 205.792969 M 86.84375 201.601562 C 86.742188 201.847656 86.410156 201.886719 86.140625 201.886719 C 83.007812 201.890625 79.875 201.894531 76.742188 201.902344 C 76.519531 201.902344 76.238281 201.867188 76.15625 201.65625 C 75.96875 201.175781 75.328125 201.101562 74.808594 201.105469 C 70.339844 201.136719 65.875 201.234375 61.40625 201.394531 C 61 201.410156 60.515625 201.382812 60.300781 201.039062 C 60.679688 201.101562 61.070312 201.101562 61.453125 201.101562 C 68.976562 201.078125 76.496094 201.054688 84.019531 201.03125 C 84.835938 201.027344 85.65625 201.023438 86.472656 201.023438 C 89.21875 201.015625 91.964844 201.007812 94.710938 201.039062 C 92.449219 201.078125 90.183594 201.113281 87.917969 201.152344 C 87.507812 201.15625 87.003906 201.222656 86.84375 201.601562 M 50.414062 186.683594 C 50.078125 186.960938 49.742188 187.238281 49.40625 187.515625 C 49.75 187.296875 50.089844 187.082031 50.433594 186.867188 C 49.804688 188.589844 49.261719 190.339844 48.796875 192.117188 C 48.753906 192.292969 48.523438 192.335938 48.339844 192.332031 C 47.367188 192.328125 46.398438 192.074219 45.550781 191.605469 C 45.472656 191.5625 45.390625 191.507812 45.375 191.421875 C 45.355469 191.332031 45.425781 191.246094 45.488281 191.175781 C 47.050781 189.492188 48.71875 187.90625 50.484375 186.433594 C 50.566406 186.492188 50.492188 186.617188 50.414062 186.683594 M 69.242188 202.929688 C 69.230469 202.558594 69.222656 202.1875 69.210938 201.816406 C 69.210938 201.757812 69.210938 201.6875 69.253906 201.644531 C 69.292969 201.601562 69.363281 201.601562 69.421875 201.601562 C 70.863281 201.601562 72.304688 201.601562 73.746094 201.601562 C 73.8125 201.601562 73.886719 201.601562 73.9375 201.648438 C 73.996094 201.699219 74 201.785156 74 201.863281 C 74 202.222656 74 202.582031 74.003906 202.941406 C 74.003906 202.996094 74 203.0625 73.953125 203.097656 C 73.921875 203.121094 73.878906 203.121094 73.839844 203.121094 C 72.371094 203.125 70.902344 203.132812 69.4375 203.136719 C 69.390625 203.136719 69.339844 203.136719 69.304688 203.109375 C 69.25 203.070312 69.242188 202.996094 69.242188 202.929688 M 92.308594 203.046875 C 92.308594 203.070312 92.304688 203.097656 92.285156 203.113281 C 92.269531 203.125 92.246094 203.128906 92.226562 203.128906 C 90.882812 203.125 89.535156 203.121094 88.191406 203.117188 C 88.128906 203.117188 88.058594 203.113281 88.011719 203.070312 C 87.964844 203.023438 87.960938 202.949219 87.960938 202.882812 C 87.960938 202.527344 87.960938 202.171875 87.964844 201.816406 C 87.964844 201.769531 87.964844 201.714844 87.992188 201.675781 C 88.039062 201.605469 88.132812 201.601562 88.214844 201.601562 C 89.539062 201.601562 90.863281 201.601562 92.191406 201.601562 C 92.3125 201.601562 92.351562 201.769531 92.347656 201.894531 C 92.332031 202.277344 92.320312 202.660156 92.308594 203.046875 M 42.160156 204.550781 C 41.820312 202.691406 41.765625 200.726562 42.441406 198.960938 C 42.578125 198.605469 42.773438 198.230469 43.121094 198.078125 C 43.472656 197.925781 43.984375 198.152344 43.964844 198.53125 C 43.378906 198.65625 42.929688 199.148438 42.695312 199.699219 C 42.460938 200.25 42.414062 200.855469 42.363281 201.453125 C 42.351562 201.597656 42.382812 201.796875 42.527344 201.8125 C 42.988281 201.863281 43.449219 201.910156 43.910156 201.960938 C 44.050781 201.972656 44.226562 202.019531 44.25 202.160156 C 44.28125 202.34375 44.035156 202.425781 43.851562 202.433594 C 43.394531 202.445312 42.933594 202.417969 42.480469 202.347656 C 42.375 202.332031 42.339844 202.480469 42.34375 202.585938 C 42.375 203.238281 42.410156 203.902344 42.625 204.519531 C 42.839844 205.140625 43.269531 205.714844 43.878906 205.953125 C 43.890625 206.246094 43.554688 206.464844 43.261719 206.417969 C 42.972656 206.367188 42.746094 206.132812 42.59375 205.882812 C 42.351562 205.480469 42.246094 205.011719 42.160156 204.550781 M 45.414062 198.050781 C 45.503906 197.921875 45.679688 197.910156 45.835938 197.910156 C 48.058594 197.902344 50.285156 197.890625 52.511719 197.882812 C 52.789062 197.882812 53.164062 197.964844 53.171875 198.246094 C 53.183594 198.539062 52.789062 198.632812 52.496094 198.632812 C 50.351562 198.617188 48.207031 198.605469 46.0625 198.59375 C 45.886719 198.59375 45.703125 198.589844 45.554688 198.496094 C 45.402344 198.40625 45.3125 198.191406 45.414062 198.050781 M 93.703125 197.878906 C 93.351562 198.277344 92.664062 198.3125 92.273438 197.953125 C 92.105469 197.796875 91.992188 197.582031 91.914062 197.363281 C 91.769531 196.949219 91.75 196.453125 92.019531 196.101562 C 92.257812 195.792969 92.671875 195.667969 93.058594 195.671875 C 93.226562 195.671875 93.398438 195.695312 93.546875 195.765625 C 93.839844 195.898438 94.03125 196.199219 94.085938 196.515625 C 94.140625 196.832031 94.074219 197.15625 93.953125 197.453125 C 93.890625 197.605469 93.8125 197.753906 93.703125 197.878906 M 89.921875 195.660156 C 90.105469 195.640625 90.289062 195.667969 90.46875 195.699219 C 90.816406 195.753906 91.070312 196.078125 91.140625 196.421875 C 91.207031 196.765625 91.125 197.121094 91.007812 197.449219 C 90.960938 197.585938 90.90625 197.722656 90.820312 197.839844 C 90.554688 198.203125 90.015625 198.308594 89.605469 198.117188 C 89.199219 197.929688 88.933594 197.492188 88.894531 197.042969 C 88.867188 196.726562 88.945312 196.398438 89.128906 196.140625 C 89.3125 195.878906 89.605469 195.691406 89.921875 195.660156 M 72.757812 196.128906 C 73 195.703125 73.566406 195.574219 74.046875 195.667969 C 74.171875 195.695312 74.296875 195.730469 74.40625 195.796875 C 74.660156 195.945312 74.816406 196.226562 74.859375 196.519531 C 74.90625 196.808594 74.851562 197.105469 74.753906 197.382812 C 74.667969 197.640625 74.539062 197.890625 74.320312 198.050781 C 73.9375 198.335938 73.355469 198.234375 73.019531 197.894531 C 72.679688 197.558594 72.566406 197.042969 72.628906 196.570312 C 72.648438 196.417969 72.683594 196.265625 72.757812 196.128906 M 39.847656 188.371094 C 39.925781 188.316406 40.03125 188.34375 40.117188 188.375 C 40.914062 188.648438 41.699219 188.960938 42.464844 189.316406 C 42.578125 189.367188 42.710938 189.449219 42.707031 189.574219 C 42.703125 189.914062 42.742188 190.257812 42.832031 190.585938 C 42.324219 190.574219 41.820312 190.558594 41.316406 190.546875 C 41.257812 190.542969 41.199219 190.542969 41.144531 190.519531 C 41.011719 190.46875 40.949219 190.320312 40.894531 190.1875 C 40.632812 189.535156 40.28125 188.921875 39.847656 188.371094 M 71.324219 197.933594 C 71.167969 198.125 70.914062 198.292969 70.691406 198.195312 C 70.640625 198.175781 70.585938 198.1875 70.535156 198.191406 C 70.242188 198.222656 69.957031 198.046875 69.789062 197.808594 C 69.621094 197.570312 69.550781 197.277344 69.507812 196.988281 C 69.480469 196.808594 69.464844 196.625 69.503906 196.449219 C 69.570312 196.160156 69.796875 195.917969 70.066406 195.785156 C 70.46875 195.589844 70.976562 195.628906 71.339844 195.890625 C 71.457031 195.972656 71.5625 196.078125 71.628906 196.207031 C 71.683594 196.316406 71.710938 196.433594 71.722656 196.554688 C 71.78125 197.042969 71.632812 197.554688 71.324219 197.933594 M 68.085938 198.179688 C 67.75 198.3125 67.351562 198.195312 67.09375 197.945312 C 66.832031 197.699219 66.699219 197.339844 66.664062 196.984375 C 66.632812 196.683594 66.664062 196.367188 66.832031 196.117188 C 67.042969 195.792969 67.445312 195.632812 67.832031 195.628906 C 68.078125 195.625 68.335938 195.679688 68.53125 195.835938 C 68.738281 196 68.847656 196.265625 68.875 196.527344 C 68.898438 196.789062 68.84375 197.054688 68.761719 197.304688 C 68.640625 197.667969 68.4375 198.039062 68.085938 198.179688 M 54.65625 199.445312 C 54.425781 200.027344 54.300781 200.652344 54.289062 201.277344 C 54.285156 201.472656 54.289062 201.675781 54.210938 201.855469 C 53.925781 200.664062 53.636719 199.472656 53.347656 198.285156 C 53.316406 198.152344 53.296875 197.992188 53.402344 197.910156 C 53.460938 197.863281 53.542969 197.863281 53.617188 197.863281 C 54.011719 197.863281 54.40625 197.859375 54.796875 197.859375 C 54.878906 197.859375 54.976562 197.867188 55.023438 197.933594 C 55.050781 197.972656 55.058594 198.019531 55.058594 198.066406 C 55.078125 198.550781 54.835938 198.996094 54.65625 199.445312 M 41.847656 193.011719 C 41.679688 192.324219 41.511719 191.632812 41.265625 190.96875 C 41.789062 190.976562 42.308594 191.003906 42.832031 191.046875 C 42.929688 191.054688 43.0625 191.125 43.015625 191.210938 C 42.941406 191.34375 43.007812 191.507812 43.0625 191.652344 C 43.117188 191.796875 43.144531 191.988281 43.023438 192.082031 C 42.632812 192.390625 42.238281 192.703125 41.847656 193.011719 M 89.144531 191.566406 C 89.195312 191.957031 89.246094 192.347656 89.300781 192.738281 C 89.304688 192.777344 89.285156 192.839844 89.246094 192.824219 C 88.75 192.59375 88.226562 192.421875 87.691406 192.308594 C 87.53125 192.277344 87.417969 192.121094 87.382812 191.960938 C 87.347656 191.800781 87.375 191.632812 87.402344 191.472656 C 87.410156 191.425781 87.421875 191.375 87.460938 191.351562 C 87.480469 191.34375 87.503906 191.34375 87.523438 191.339844 C 87.933594 191.324219 88.34375 191.308594 88.753906 191.296875 C 88.878906 191.292969 89.023438 191.296875 89.09375 191.402344 C 89.128906 191.449219 89.136719 191.507812 89.144531 191.566406 M 63.019531 199.183594 C 63.023438 199.214844 63.027344 199.25 63.015625 199.285156 C 62.984375 199.382812 62.855469 199.398438 62.75 199.394531 C 61.851562 199.371094 60.953125 199.359375 60.050781 199.351562 C 60.023438 199.121094 60.035156 198.820312 60.253906 198.742188 C 60.308594 198.722656 60.367188 198.722656 60.425781 198.722656 C 61.273438 198.726562 62.125 198.726562 62.972656 198.726562 C 62.988281 198.878906 63.003906 199.03125 63.019531 199.183594 M 60.558594 202.726562 C 60.3125 202.792969 60.03125 202.761719 59.824219 202.609375 C 59.613281 202.460938 59.492188 202.1875 59.542969 201.9375 C 59.597656 201.683594 59.839844 201.480469 60.097656 201.492188 C 60.363281 201.507812 60.628906 201.527344 60.898438 201.542969 C 60.917969 201.84375 60.882812 202.152344 60.785156 202.441406 C 60.746094 202.5625 60.679688 202.691406 60.558594 202.726562 M 38.59375 198.609375 C 38.632812 198.429688 38.867188 198.394531 39.050781 198.394531 C 39.570312 198.394531 40.085938 198.398438 40.605469 198.398438 C 40.644531 198.398438 40.683594 198.398438 40.714844 198.421875 C 40.746094 198.445312 40.757812 198.492188 40.765625 198.53125 C 40.789062 198.632812 40.8125 198.738281 40.785156 198.839844 C 40.761719 198.941406 40.675781 199.035156 40.570312 199.027344 C 40.242188 199.015625 39.910156 199 39.578125 198.988281 C 39.421875 198.980469 39.261719 198.972656 39.105469 198.96875 C 38.984375 198.964844 38.859375 198.957031 38.753906 198.902344 C 38.648438 198.84375 38.566406 198.726562 38.59375 198.609375 M 40.066406 194.320312 C 40.1875 194.128906 40.359375 193.941406 40.582031 193.921875 C 40.125 194.65625 39.875 195.515625 39.875 196.382812 C 39.875 196.496094 39.875 196.617188 39.816406 196.714844 C 39.753906 196.8125 39.605469 196.863281 39.523438 196.78125 C 39.464844 196.726562 39.46875 196.632812 39.476562 196.550781 C 39.539062 195.777344 39.648438 194.976562 40.066406 194.320312 M 53.878906 204.984375 C 53.839844 204.949219 53.84375 204.882812 53.851562 204.832031 C 53.917969 204.402344 53.980469 203.972656 54.046875 203.542969 C 54.054688 203.492188 54.070312 203.429688 54.117188 203.410156 C 54.195312 203.378906 54.257812 203.476562 54.285156 203.550781 C 54.457031 204.027344 54.625 204.503906 54.796875 204.980469 C 54.527344 205.011719 54.253906 205.023438 53.980469 205.011719 C 53.945312 205.011719 53.90625 205.007812 53.878906 204.984375 M 69.753906 203.449219 C 70.675781 203.433594 71.597656 203.417969 72.515625 203.402344 C 73.011719 203.394531 73.511719 203.386719 74.003906 203.421875 C 74.273438 203.4375 74.550781 203.46875 74.796875 203.578125 C 75.046875 203.683594 75.273438 203.875 75.359375 204.132812 C 74.894531 203.574219 74.070312 203.519531 73.34375 203.507812 C 72.148438 203.488281 70.949219 203.46875 69.753906 203.449219 M 66.128906 191.273438 C 66.523438 191.289062 66.921875 191.308594 67.316406 191.324219 C 67.5 191.332031 67.683594 191.339844 67.867188 191.332031 C 68.25 191.316406 68.621094 191.230469 68.996094 191.144531 C 69.042969 191.164062 69.042969 191.238281 69.007812 191.277344 C 68.976562 191.316406 68.921875 191.332031 68.867188 191.34375 C 67.964844 191.539062 67.023438 191.558594 66.109375 191.402344 C 66.117188 191.359375 66.121094 191.316406 66.128906 191.273438 M 56.621094 191.417969 C 57.039062 191.359375 57.460938 191.347656 57.882812 191.378906 C 58.015625 191.386719 58.191406 191.441406 58.1875 191.578125 C 57.570312 191.589844 56.957031 191.601562 56.339844 191.613281 C 56.339844 191.488281 56.496094 191.433594 56.621094 191.417969 M 92.253906 203.398438 C 92.308594 203.398438 92.382812 203.433594 92.355469 203.480469 C 91.015625 203.496094 89.675781 203.515625 88.335938 203.53125 C 88.292969 203.488281 88.382812 203.433594 88.445312 203.433594 C 89.714844 203.421875 90.984375 203.410156 92.253906 203.398438 M 69.929688 191.300781 C 70.226562 191.28125 70.523438 191.300781 70.8125 191.355469 C 70.964844 191.382812 71.132812 191.429688 71.214844 191.558594 C 70.699219 191.542969 70.183594 191.535156 69.664062 191.539062 C 69.628906 191.476562 69.667969 191.394531 69.726562 191.355469 C 69.785156 191.3125 69.859375 191.304688 69.929688 191.300781 M 44.3125 204.152344 C 44.3125 204.195312 44.304688 204.238281 44.277344 204.273438 C 44.257812 204.296875 44.226562 204.3125 44.195312 204.3125 C 44.164062 203.863281 44.210938 203.40625 44.332031 202.972656 C 44.375 203.363281 44.347656 203.757812 44.3125 204.152344 M 87.1875 204.042969 C 87.183594 204.085938 87.160156 204.125 87.125 204.144531 C 86.984375 204.019531 86.976562 203.777344 87.105469 203.640625 C 87.175781 203.757812 87.203125 203.90625 87.179688 204.042969 M 87.988281 203.457031 C 88.085938 203.4375 88.207031 203.425781 88.261719 203.507812 C 88.136719 203.542969 88.007812 203.542969 87.882812 203.511719 C 87.859375 203.46875 87.9375 203.441406 87.984375 203.453125 M 44.324219 200.90625 C 44.371094 200.9375 44.34375 201.023438 44.289062 201.023438 C 44.242188 200.992188 44.269531 200.902344 44.328125 200.902344 Z M 44.324219 200.90625 " fill-opacity="1" fill-rule="nonzero"/></g><g clip-path="url(#194d97e461)"><g clip-path="url(#2d2f2f0cb2)"><g clip-path="url(#f92cfad896)"><path fill="#000000" d="M 92.925781 182.046875 L 94.933594 188.363281 L 79.878906 180.75 L 84.75 189.042969 C 84.75 189.042969 69.714844 179.320312 66.53125 178.851562 L 69.625 183.921875 C 69.625 183.921875 59.535156 178.359375 57.292969 178.796875 L 58.796875 181.171875 C 58.796875 181.171875 44.78125 175.902344 39.582031 176.535156 C 39.582031 176.535156 47.289062 175.167969 54.457031 177.867188 L 53.371094 175.851562 C 53.371094 175.851562 58.476562 176.230469 62.113281 177.660156 L 60.628906 174.34375 C 60.628906 174.34375 71.136719 176.167969 75.109375 178.808594 L 73.792969 175.328125 C 73.785156 175.316406 86.761719 178.640625 92.925781 182.046875 Z M 92.925781 182.046875 " fill-opacity="1" fill-rule="nonzero"/></g></g></g><path fill="#000000" d="M 92.222656 208.777344 L 41.410156 208.777344 L 41.410156 209.347656 Z M 92.222656 208.777344 " fill-opacity="1" fill-rule="nonzero"/><g clip-path="url(#08f302c6f5)"><path fill="#ffffff" d="M 37.535156 206.261719 L 41.058594 206.261719 L 41.601562 207.351562 L 95.71875 207.351562 L 41.949219 207.351562 L 41.34375 207.804688 L 40.804688 206.867188 L 38.496094 206.867188 L 40.421875 210.355469 L 88.578125 210.355469 L 40.160156 210.804688 L 37.535156 206.261719 " fill-opacity="1" fill-rule="nonzero"/></g><g fill="#004aad" fill-opacity="1"><g transform="translate(96.526141, 199.020777)"><g><path d="M 9.015625 0 L 0.5625 -17.375 L 0.5625 -18.796875 L 5.203125 -18.796875 L 12.03125 -4.265625 L 13.015625 -4.265625 L 19.96875 -18.796875 L 24.484375 -18.796875 L 24.484375 -17.375 L 15.890625 0 Z M 9.015625 0 "/></g></g></g><g fill="#004aad" fill-opacity="1"><g transform="translate(121.555883, 199.020777)"><g><path d="M 2.8125 0 L 2.8125 -18.796875 L 19.890625 -18.796875 L 24.234375 -15.0625 L 24.234375 -9.578125 L 20.34375 -6.25 L 24.859375 -1.421875 L 24.859375 0 L 19.9375 0 L 14.8125 -5.75 L 7.59375 -5.75 L 7.59375 0 Z M 7.59375 -9.71875 L 17.640625 -9.71875 L 19.46875 -11.25 L 19.46875 -13.28125 L 17.640625 -14.8125 L 7.59375 -14.8125 Z M 7.59375 -9.71875 "/></g></g></g><g fill="#004aad" fill-opacity="1"><g transform="translate(148.168429, 199.020777)"><g><path d="M 7.171875 0 L 2.140625 -4.1875 L 2.140625 -14.609375 L 7.171875 -18.796875 L 20.59375 -18.796875 L 25.609375 -14.609375 L 25.609375 -4.1875 L 20.59375 0 Z M 9.3125 -4.03125 L 18.4375 -4.03125 L 20.828125 -6.046875 L 20.828125 -12.75 L 18.4375 -14.765625 L 9.3125 -14.765625 L 6.921875 -12.75 L 6.921875 -6.046875 Z M 9.3125 -4.03125 "/></g></g></g><g fill="#004aad" fill-opacity="1"><g transform="translate(175.907713, 199.020777)"><g><path d="M 7.171875 0 L 2.140625 -4.1875 L 2.140625 -14.609375 L 7.171875 -18.796875 L 20.59375 -18.796875 L 25.609375 -14.609375 L 25.609375 -4.1875 L 20.59375 0 Z M 9.3125 -4.03125 L 18.4375 -4.03125 L 20.828125 -6.046875 L 20.828125 -12.75 L 18.4375 -14.765625 L 9.3125 -14.765625 L 6.921875 -12.75 L 6.921875 -6.046875 Z M 9.3125 -4.03125 "/></g></g></g><g fill="#004aad" fill-opacity="1"><g transform="translate(203.646997, 199.020777)"><g><path d="M 2.8125 0 L 2.8125 -18.796875 L 10.203125 -18.796875 L 15.96875 -8.078125 L 16.71875 -8.078125 L 22.515625 -18.796875 L 29.796875 -18.796875 L 29.796875 0 L 25.171875 0 L 25.171875 -13.796875 L 24.59375 -13.796875 L 18.6875 -2.921875 L 13.9375 -2.921875 L 8.03125 -13.796875 L 7.4375 -13.796875 L 7.4375 0 Z M 2.8125 0 "/></g></g></g><g fill="#004aad" fill-opacity="1"><g transform="translate(236.242004, 199.020777)"><g><path d="M 7.46875 0 L 0.703125 -17.375 L 0.703125 -18.796875 L 5.15625 -18.796875 L 10.765625 -4.21875 L 11.515625 -4.21875 L 15.671875 -14.203125 L 14.4375 -17.375 L 14.4375 -18.796875 L 18.796875 -18.796875 L 24.1875 -4.21875 L 24.9375 -4.21875 L 30.4375 -18.796875 L 34.796875 -18.796875 L 34.796875 -17.375 L 28.125 0 L 21.234375 0 L 18.140625 -7.921875 L 17.5 -7.921875 L 14.234375 0 Z M 7.46875 0 "/></g></g></g><g fill="#004aad" fill-opacity="1"><g transform="translate(271.707511, 199.020777)"><g><path d="M 1.609375 0 L 1.609375 -3.84375 L 6.421875 -3.84375 L 6.421875 -14.953125 L 1.609375 -14.953125 L 1.609375 -18.796875 L 16 -18.796875 L 16 -14.953125 L 11.1875 -14.953125 L 11.1875 -3.84375 L 16 -3.84375 L 16 0 Z M 1.609375 0 "/></g></g></g><g fill="#004aad" fill-opacity="1"><g transform="translate(289.30614, 199.020777)"><g><path d="M 2.8125 0 L 2.8125 -18.796875 L 7.59375 -18.796875 L 7.59375 -11.59375 L 12.140625 -11.59375 L 18.875 -18.796875 L 23.703125 -18.796875 L 23.703125 -17.375 L 16.21875 -9.640625 L 24.375 -1.421875 L 24.375 0 L 19.28125 0 L 12.234375 -7.40625 L 7.59375 -7.40625 L 7.59375 0 Z M 2.8125 0 "/></g></g></g><g fill="#004aad" fill-opacity="1"><g transform="translate(314.443193, 199.020777)"><g><path d="M 1.609375 0 L 1.609375 -3.84375 L 6.421875 -3.84375 L 6.421875 -14.953125 L 1.609375 -14.953125 L 1.609375 -18.796875 L 16 -18.796875 L 16 -14.953125 L 11.1875 -14.953125 L 11.1875 -3.84375 L 16 -3.84375 L 16 0 Z M 1.609375 0 "/></g></g></g></svg>